<svg xmlns="http://www.w3.org/2000/svg" width="1200" height="675" viewBox="0 0 1200 675" role="img" aria-label="Mini LOIS v0.2 home screen preview">
  <rect width="1200" height="675" fill="#f6f8fa"/>
  <rect x="35" y="35" width="1130" height="605" rx="24" fill="#ffffff" stroke="#d0d7de"/>
  <rect x="35" y="35" width="190" height="605" rx="24" fill="#eef2f7"/>
  <text x="70" y="120" font-family="Arial" font-size="26" font-weight="700" fill="#24292f">Configuration</text>
  <rect x="70" y="155" width="120" height="36" rx="8" fill="#ffffff" stroke="#d0d7de"/>
  <text x="82" y="179" font-family="Arial" font-size="17" fill="#24292f">llama3.2</text>
  <rect x="70" y="225" width="120" height="36" rx="8" fill="#ffffff" stroke="#d0d7de"/>
  <text x="82" y="249" font-family="Arial" font-size="16" fill="#24292f">MAT-1001</text>
  <rect x="70" y="295" width="125" height="88" rx="10" fill="#dbeafe"/>
  <text x="82" y="325" font-family="Arial" font-size="15" fill="#0969da">v0.2 editable</text>
  <text x="82" y="350" font-family="Arial" font-size="15" fill="#0969da">approval flow</text>
  <text x="290" y="155" font-family="Arial" font-size="42" font-weight="700" fill="#24292f">Mini LOIS: CaseOps AI</text>
  <text x="290" y="195" font-family="Arial" font-size="18" fill="#57606a">matter-scoped RAG · source-cited answers · editable action approval · audit trail</text>
  <text x="290" y="265" font-family="Arial" font-size="28" font-weight="700" fill="#24292f">MAT-1001 · Johnson v. RideshareCo</text>
  <g font-family="Arial" font-size="16" fill="#24292f">
    <text x="290" y="325" font-weight="700">Type</text><text x="290" y="355">Personal Injury</text>
    <text x="455" y="325" font-weight="700">Phase</text><text x="455" y="355">Pre-mediation discovery</text>
    <text x="690" y="325" font-weight="700">Client</text><text x="690" y="355">Alicia Johnson</text>
    <text x="875" y="325" font-weight="700">Paralegal</text><text x="875" y="355">Miguel Santos</text>
  </g>
  <line x1="290" y1="395" x2="1100" y2="395" stroke="#d0d7de"/>
  <text x="290" y="430" font-family="Arial" font-size="20" font-weight="700" fill="#cf222e">Ask Matter</text>
  <rect x="290" y="465" width="780" height="72" rx="10" fill="#f6f8fa" stroke="#d0d7de"/>
  <text x="315" y="508" font-family="Arial" font-size="18" fill="#24292f">What are the key risks and next steps in this matter?</text>
  <rect x="290" y="560" width="130" height="44" rx="10" fill="#ff4b4b"/>
  <text x="313" y="588" font-family="Arial" font-size="17" font-weight="700" fill="#ffffff">Ask Mini LOIS</text>
</svg>
